<svg id="eJnEe0gWDjd1" xmlns="http://www.w3.org/2000/svg" xmlns:xlink="http://www.w3.org/1999/xlink" viewBox="0 0 972.14 399.99" shape-rendering="geometricPrecision" text-rendering="geometricPrecision"><g transform="translate(-113.930229-399.997681)"><path d="M297.78,400.69c-40.74,3.5-77.72,18.59-107.48,42.27-2.38,1.84-4.38,3.5-6.8,5.65l-19.16,18.75c-17.25,21.31-27.04,34.3-37.7,62.33-9.84,25.99-14.53,56.49-12.06,86.99c8.5,104.56,101.05,192.37,217.08,182.56c104.5-8.78,192.16-100.3,182.73-215.89-3.4-41.23-21.74-85.35-48.05-114.11-2.32-2.51-3.87-4.67-5.87-6.57l-13.08-12.43c-31.93-29.61-87.96-54.78-149.61-49.55" clip-rule="evenodd" fill="#adb3b8" fill-rule="evenodd"/><path d="M282.58,468.63c-19.98-2.2-28.68-.46-43.93,8.43-5.25,3.08-11.59,7.5-15.82,11.35-11.68,10.84-16.17,15.57-25.08,29.79-6.75,10.79-8.7,15.25-18.18,23.06-5.77,4.73-9.32,8.74-11.69,15.51-.98,2.88-3.04,7.91-3.45,10.73c11.69,7.34,25.08,9.4,38.57,9.14c7.41-.15,15.35-.56,22.66-1.28c6.91-.66,18.96-3.79,20.15-3.75c1.33,13.61,7.82,23.98,17.2,31.58c1.75,1.39,2.78,2.21,4.53,3.29c1.95,1.23,3.86,2,5.15,3.44-16.89,8.63-23.64,31.79-10.51,50.48c2.63,3.76,8.86,9.92,13.44,12.02-.1.11-.26.15-.31.36l-6.33,6.27c-13.5,14.73-11.28,40.78,12.47,52.02c2.88,1.33,7.36,2.42,9.73,3.65-1.49,9.19-4.89,15.91,3.5,28.34c13.75,20.23,50.47,14.18,52.32-14.74.52-7.66-1.28-9.86-2.89-15.77c12.62-3.7,23.85-11.9,26.32-25.16c2.22-11.71-.77-21.31-8.18-29.27-1.9-2.06-5.05-3.96-6.8-6.01c20.4-10.17,26.73-32.56,16.02-51.2-1.86-3.24-3.71-4.78-5.93-7.09-2.36-2.41-4.68-3.43-7.21-5.49c17.05-8.73,24.62-18.95,28.37-37.23c19.21,3.85,20.45,4.87,42.29,5.08c7.21.05,15.35-.25,21.84-2.1c6.49-1.86,11.13-6.32,16.33-8.01-1.08-5.55-5.2-15.41-7.98-19.06-3.56-4.67-7.26-4.46-13.86-12.73-7.98-9.91-19.11-30.15-28.22-38.56-8.65-7.96-9.06-10.18-22.3-18.38-12.98-8.11-24.88-11.25-43.06-9.65c1.95-14.23-.41-22.55-7.27-31.69-12.82-17.15-42.59-16.07-54.95.31-7.66,10.15-8.95,17.18-6.94,32.32" clip-rule="evenodd" fill="#fff" fill-rule="evenodd"/><path d="M183.34,559.02c4.99,4.78,28.79,2.1,36.66,1.59c12.83-.82,21.79-3.33,31.63-8.47c4.27-2.21,8.6-5.39,11.79-8.01c8.66-7.09,13.08-10.06,19.21-20.33c2.58-4.22,5.57-9.36,9.89-10.73l7.11,3.9.15,18.03c-55.05,6.31-49.49,61.88-.1,66.14l.36,14.94c-4.89,1.86-30.75,3.96-29.57,24.29.83,14.17,15.04,22.85,29.41,24.76v14.78c-12.46,1.44-26.52,9.91-23.69,24.19c2.37,12.33,17.35,16.95,31.83,17.26v-5.85c-5-2.62-25.4-1.95-25.49-14.13-.11-12.01,12.77-14.33,24.05-15.8l-.16-24.86c-4.95-3.38-28.32-4.52-29.1-19.2-.72-13.3,13.08-17.71,23.48-18.89c1.71-.21,4.01-.16,5.3-1.03l.36-26.14c-4.74-1.23-9.37-.92-14.22-2.27-11.38-3.24-24.61-11.34-25.13-24.55-.67-18.12,21.11-26.9,39.14-27.53l.16-28.96c-4.63-2.92-11.39-1.33-9.89-9.5.93-5.29,6.34-6.93,11.95-7.5l.47-6.16c-11.18-.72-1.19,4.36-20.86-2.93-15.14-5.64-28.42-4.41-41.92,4.17-5,3.13-11.59,7.59-15.25,11.35-2.37,2.46-4.53,3.79-6.74,6.26-5.77,6.37-11.69,15.42-16.48,23.11-5.25,8.43-9.99,15.46-17.62,21.42-2.3,1.78-5.39,4.49-6.73,6.65" clip-rule="evenodd" fill="#0a4f9a" fill-rule="evenodd"/><path d="M322.75,488.2l.16,5.85c4.9,3.24,10.92,1.65,12.41,7.61c1.8,7.13-4.17,8.16-9.84,9.44-.1,8.12-1.08,21.68.67,29.08c10,2.31,17.05,2.56,25.5,7.34c25.96,14.63,11.59,44.62-21.79,46.93-2.05.16-2.73,0-4.12.72-1.44,5.75-1.08,19.98.36,25.83c6.9,2.72,29.87,2.83,28.69,19.31-.67,9.18-11.59,14.74-19.26,17-3.09.92-6.95,1.18-9.89,2.51-.77,7.09-1.03,18.33.31,25.11c10.45,2.1,23.53,4.26,23.43,15.87-.11,10.32-15.19,12.32-25.5,13.76l-.36,6.57c13.54-.82,29.66-5.23,32.03-16.8c3.09-14.79-10.92-23.16-23.59-24.91l.1-14.28c13.09-4,29-9.29,29.26-24.8.25-18.44-14.42-20.23-29.21-24.91l-.25-14.73c18.8-1.96,39.61-14.54,39.71-33.24.05-10.93-7.26-18.94-12.87-23.05-3.31-2.41-7.52-4.58-11.85-6.27-3.81-1.54-12.15-2.83-14.58-4l-.21-17.72c7.27-2.56,6.65-6.72,12.78.57c3.24,3.8,5.66,8.99,8.8,12.69c14.01,16.59,31.57,27.94,54.49,30.2c13.39,1.33,27.7,1.94,40.33-.83-.93-3.9-3.76-4.46-6.49-6.78-2.48-2.05-4.53-3.9-6.65-6.37-10.09-11.71-14.42-23.16-27.55-38.05-8.96-10.12-24.62-22.95-40.89-25.27-8.65-1.23-14.99.05-22.41,2.88-2.93,1.12-6.23,2.92-9.22,3.79-4.05,1.22-8.32-.64-12.5-1.05" clip-rule="evenodd" fill="#0a4f9a" fill-rule="evenodd"/><path d="M641.3,546.03l-21.48-9.98c-2.47,6.17-9.47,12.03-15.92,14.95-21.21,9.71-51.03-2.56-51.19-34.92-.16-33.48,29.87-44.98,50.83-35.74c6.23,2.76,13.85,9.28,16.27,14.88l21.12-9.7c-1.49-4.72-7.94-11.65-10.71-14.27C594.21,437.56,528.86,458,528.6,515.52c-.25,57.3,65.36,78.27,101.56,44.72c2.84-2.66,9.33-9.64,11.14-14.21" clip-rule="evenodd" fill="#0a4f9a" fill-rule="evenodd"/><path d="M654.48,651.66c-1.6-19.15-11.03-31.79-20.75-40.41-10.3-9.1-27.82-15.57-46.72-14.07-58.5,4.62-73.85,74.16-35.69,106.45c11.13,9.39,27.76,15.56,47.59,14.07c8.96-.67,16.85-2.92,23.9-6.57c8.6-4.52,10.92-7.55,17.15-13.45c11.33-10.79,15.86-30.1,14.52-46.02m-54.8,43.7c-52.33,8.52-60.31-68.51-13.39-75.64c23.43-3.55,40.58,11.4,43.31,31.33c3.25,23.41-10.35,41.14-29.92,44.31" clip-rule="evenodd" fill="#0a4f9a" fill-rule="evenodd"/><path d="M770.1,501.41l-.1-10.64h-21.99l-.05,83.24l21.84.06c.72-3.8.25-37.13.25-43.86c0-7.45.72-12.59,4.53-17.41c7.78-9.8,21.37-11.66,29.05-2.05c4.22,5.39,3.45,11.24,3.45,18.9c0,13.86-.87,30.71.1,44.22l21.89.2c1.13-10.64.15-27.58.15-38.77c0-16.64.93-34-15.81-42.83-4.79-2.56-9.89-3.91-16.32-3.7-17.51.41-23.59,10.58-26.99,12.64" clip-rule="evenodd" fill="#0a4f9a" fill-rule="evenodd"/><path d="M979.98,556.2l-18.95-9.55c-2.68,5.24-4.59,8.83-9.07,11.5-13.5,7.95-32.34-1.39-32.3-25.68.06-23.57,18.29-33.33,31.78-25.73c4.58,2.62,7.01,6.17,9.37,11.56c2.93-.98,17.62-7.91,19.16-9.56-18.34-33.22-83.64-25.27-83.69,23.73c0,35.9,35.9,51.04,63.76,40.52c7.48-2.83,17.83-10.68,19.94-16.79" clip-rule="evenodd" fill="#0a4f9a" fill-rule="evenodd"/><path d="M731.22,632.35l-10.92.26-.11,17.82l11.03.15c.15,10.01,0,20.02,0,29.88c0,10.18-1.03,18.44,3.7,26.45c9.63,16.28,35.64,11.6,42.33,4.05l-6.28-14.79c-3.75,1.29-7.52,4.97-13.23,2.1-4.38-2.21-3.66-7.45-3.66-13.3.06-11.4-.2-23,.06-34.4l15.36-.05.04-17.92-15.46-.05v-26.35l-22.86-.05v26.2Z" clip-rule="evenodd" fill="#0a4f9a" fill-rule="evenodd"/><polygon points="658.86,572.01 659.02,574.07 680.8,574.07 681.01,457.24 678.74,457.18 658.86,457.18" clip-rule="evenodd" fill="#0a4f9a" fill-rule="evenodd"/><path d="M690.27,642.89v-10.03l-22.56-.25-.05,83.14l22.56.1c.82-15.5.1-33.37.05-48.93-.05-8.89,1.6-14.08,7.98-17.26c8.14-4.06,14.01-.41,20.5,1.33l.05-20.23c-7.94-.87-19.98,4.16-25.33,9.6-2.27,2.37-.93,1.65-3.2,2.53" clip-rule="evenodd" fill="#0a4f9a" fill-rule="evenodd"/><path d="M1063.31,632.61l-.16,10.63c-2.42-1.13-7.21-8.32-20.09-11.5-27.51-6.89-50.79,13.66-50.84,42.52-.05,19.66,10.51,34.51,23.44,40.16c8.08,3.54,17.82,4.57,27.4,2.3c10.2-2.37,13.6-6.67,20.09-11.45l.1,10.64h22.56l.26-83.3h-22.76Zm-19.15,69.43c-33.49,4.82-37.71-50.39-7.17-55.51c32.34-5.5,37.75,51.1,7.17,55.51" clip-rule="evenodd" fill="#0a4f9a" fill-rule="evenodd"/><path d="M979.25,632.66l-22.71-.05-.1,10.47c-6.9-4.46-8.66-8.68-20.29-11.45-27.2-6.52-50.57,13.51-50.62,42.63c0,16.94,8.09,33.12,23.28,40c11.95,5.44,26.78,5.04,38.52-2c3.87-2.26,6.23-5.19,9.02-6.88.72,13.62-4.33,23.78-18.65,26.61-15.09,2.92-25.7-1.44-37.49-6.32-1.7,2.15-6.18,14.79-6.85,18.13c7.57,2.57,7.72,4.47,19.83,6.78c20.96,4.06,48.26,1.08,59.79-17.25c8.04-12.79,6.39-30.46,6.39-47.2-.01-11.67.55-44.43-.12-53.47m-41.09,69.27c-33.68,5.97-38.84-50.22-8.14-55.35c15.67-2.62,26.06,9.6,27.51,23.46c1.69,16.03-6.14,29.53-19.37,31.89" clip-rule="evenodd" fill="#0a4f9a" fill-rule="evenodd"/><path d="M1063.35,490.77l-.16,10.68c-1.9-1.13-2-1.74-3.85-3.44-21.53-19.61-64.69-8.48-64.69,34.46-.05,36.36,34.51,56.7,64.33,34.67c2.01-1.49,2.22-2.67,4.22-3.75l.11,10.68h21.83l.2-83.3h-21.99Zm-18.74,69.48c-32.81,4.32-35.74-51.61-6.18-55.66c31.68-4.32,35.18,51.86,6.18,55.66" clip-rule="evenodd" fill="#0a4f9a" fill-rule="evenodd"/><polygon points="852.77,574.01 874.96,574.07 875.12,490.93 852.82,490.77" clip-rule="evenodd" fill="#0a4f9a" fill-rule="evenodd"/><polygon points="703.41,573.87 725.4,574.07 725.5,490.98 703.46,490.83" clip-rule="evenodd" fill="#0a4f9a" fill-rule="evenodd"/><path d="M313.07,439.16c-26.32,5.34-19.21,45.56,8.6,39.96c25.03-4.99,18.7-45.5-8.6-39.96" clip-rule="evenodd" fill="#0a4f9a" fill-rule="evenodd"/><path d="M313.28,581.51c1.9-1.13.26-.1,1.9-1.85c7.16-.2,14.62.36,21.32-1.59c5.15-1.54,12.67-5.56,13.08-10.12.88-8.93-22.2-12.83-26.57-12.73-1.75.05-2.83.62-5,.72-7.1.2-33.33.41-35.54,10.63-1.13,5.34,7.06,9.75,11.54,11.3c6.29,2.2,13.65,1.44,19.27,3.64" clip-rule="evenodd" fill="#adb3b8" fill-rule="evenodd"/><path d="M867.65,647.97c-19.68-27.06-69.16-22.19-81.64,10.17-8.44,21.87,1.34,45.9,22.98,55.16c15.7,6.67,35.95,6.41,51.44-2.42c3.97-2.26,9.68-6.78,11.53-10.06-.1-.11-.25-.36-.3-.26l-17.51-8.12c-1.75,1.49-2.68,2.98-4.79,4.58-2.17,1.54-3.56,2.41-6.13,3.5-5.09,2.1-11.17,2.71-17.1,1.33-5.82-1.39-9.07-3.96-12.06-7.24-2.63-2.77-6.33-8.02-5.97-13.3h67.16c3.05-12.04-2.36-26.05-7.61-33.34m-59.74,19.1c1.7-11.04,9.84-20.8,22.04-20.9c12.62-.1,20.35,9.65,22.2,21l-44.24-.1Z" clip-rule="evenodd" fill="#0a4f9a" fill-rule="evenodd"/><path d="M315.49,732.64c-18.34,4.52-11.95,29.53,4.94,27.06c18.44-2.71,13.09-31.47-4.94-27.06" clip-rule="evenodd" fill="#0a4f9a" fill-rule="evenodd"/><path d="M859.82,457.08c-15.92,5.19-9.22,31.17,8.03,25.68c16.28-5.18,9.17-31.27-8.03-25.68" clip-rule="evenodd" fill="#0a4f9a" fill-rule="evenodd"/><path d="M694.29,482.5c4.48.26,9.43.05,13.96.1c5.14,0,6.69-2.36,9.78-4.73c3.45-2.62,14.22-10.21,16.43-12.63l-17.77-9.4-11.39,13.3c-2.06,2.47-3.75,4.36-5.71,6.73-1.49,1.86-4.47,4.83-5.3,6.63" clip-rule="evenodd" fill="#0a4f9a" fill-rule="evenodd"/><path d="M293.45,640.57c2.63.87,20.75,6.99,21.99,6.79c2.37-.36,6.95-2.63,11.23-3.45c5.2-.98,7.46-2.51,11.38-3.85-1.96-1.85-6.9-2.06-10.66-2.88-9.78-2.21-1.95-.87-10.56-.46-4.68.21-16.64.62-21.11,2.31l-2.27,1.54Z" clip-rule="evenodd" fill="#adb3b8" fill-rule="evenodd"/><path d="M315.65,581.51c18.59,0,33.68-6.11,33.68-13.66c0-7.49-15.09-13.66-33.68-13.66-18.54,0-33.63,6.17-33.63,13.66-.01,7.55,15.09,13.66,33.63,13.66" clip-rule="evenodd" fill="#adb3b9" fill-rule="evenodd"/><path d="M314.62,650.22c13.23,0,24.05-4.37,24.05-9.76c0-5.34-10.82-9.76-24.05-9.76-13.29,0-24.1,4.41-24.1,9.76c0,5.39,10.81,9.76,24.1,9.76" clip-rule="evenodd" fill="#adb3b9" fill-rule="evenodd"/></g></svg>