<svg id="ez4rD8xwXPQ1" xmlns="http://www.w3.org/2000/svg" xmlns:xlink="http://www.w3.org/1999/xlink" viewBox="0 0 1200 1200" shape-rendering="geometricPrecision" text-rendering="geometricPrecision"><g transform="matrix(1.709348 0 0 1.71427-425.582191-428.56176)"><path d="M570.71,251.21c-71.29,6.12-136.01,32.54-188.1,73.97-4.16,3.23-7.67,6.12-11.9,9.9l-33.53,32.81c-30.19,37.29-47.32,60.03-65.97,109.08-17.22,45.48-25.42,98.86-21.1,152.24c14.87,182.98,176.84,336.65,379.9,319.48c182.87-15.37,336.27-175.52,319.78-377.81-5.95-72.15-38.04-149.36-84.09-199.68-4.06-4.4-6.77-8.18-10.27-11.49l-22.89-21.75c-55.88-51.86-153.94-95.91-261.83-86.75" clip-rule="evenodd" fill="#adb3b8" fill-rule="evenodd"/><path d="M544.12,370.11c-34.97-3.85-50.19-.8-76.88,14.75-9.2,5.39-20.28,13.12-27.68,19.86-20.45,18.96-28.3,27.24-43.89,52.12-11.81,18.87-15.23,26.69-31.81,40.35-10.1,8.27-16.32,15.29-20.46,27.14-1.71,5.04-5.32,13.84-6.03,18.78c20.45,12.85,43.89,16.46,67.5,16c12.97-.26,26.86-.98,39.65-2.25c12.08-1.16,33.18-6.64,35.26-6.56c2.33,23.81,13.69,41.97,30.1,55.27c3.07,2.43,4.87,3.86,7.93,5.76c3.42,2.15,6.76,3.5,9.02,6.02-29.57,15.11-41.37,55.63-18.39,88.34c4.6,6.57,15.5,17.36,23.52,21.04-.18.19-.45.26-.54.62l-11.09,10.97c-23.62,25.78-19.74,71.36,21.82,91.04c5.04,2.33,12.88,4.23,17.03,6.38-2.61,16.08-8.56,27.84,6.13,49.59c24.06,35.41,88.32,24.82,91.56-25.79.91-13.4-2.24-17.25-5.05-27.59c22.09-6.47,41.73-20.83,46.06-44.03c3.88-20.49-1.35-37.3-14.32-51.22-3.33-3.61-8.84-6.94-11.9-10.52c35.69-17.8,46.78-56.98,28.04-89.59-3.25-5.67-6.49-8.37-10.37-12.41-4.14-4.22-8.2-6.01-12.61-9.61c29.84-15.27,43.08-33.16,49.65-65.15c33.62,6.73,35.79,8.53,74,8.89c12.62.09,26.86-.44,38.21-3.67c11.36-3.25,19.47-11.07,28.57-14.02-1.89-9.71-9.1-26.98-13.96-33.35-6.23-8.17-12.71-7.81-24.25-22.29-13.97-17.35-33.44-52.75-49.39-67.49-15.14-13.93-15.86-17.81-39.03-32.17-22.71-14.2-43.54-19.69-75.35-16.88c3.42-24.91-.72-39.47-12.71-55.46-22.44-30.02-74.54-28.13-96.17.55-13.43,17.77-15.69,30.07-12.17,56.58" clip-rule="evenodd" fill="#fff" fill-rule="evenodd"/><path d="M370.45,528.29c8.73,8.36,50.38,3.67,64.16,2.78c22.45-1.43,38.14-5.84,55.35-14.83c7.48-3.86,15.05-9.43,20.63-14.02c15.15-12.4,22.89-17.6,33.61-35.57c4.51-7.38,9.74-16.37,17.31-18.78l12.44,6.82.27,31.55c-96.34,11.04-86.61,108.29-.18,115.75l.64,26.15c-8.57,3.25-53.81,6.92-51.74,42.51c1.44,24.8,26.32,39.98,51.47,43.33v25.86c-21.81,2.52-46.42,17.35-41.46,42.33c4.15,21.59,30.37,29.67,55.71,30.2v-10.25c-8.74-4.59-44.44-3.42-44.61-24.72-.19-21.02,22.36-25.07,42.09-27.66l-.27-43.51c-8.65-5.92-49.57-7.9-50.93-33.61-1.26-23.27,22.89-31,41.1-33.06c2.99-.37,7.03-.28,9.28-1.8l.64-45.74c-8.3-2.15-16.4-1.62-24.88-3.97-19.92-5.67-43.08-19.85-43.98-42.95-1.17-31.71,36.95-47.08,68.5-48.17l.27-50.69c-8.11-5.12-19.93-2.33-17.31-16.62c1.62-9.25,11.09-12.13,20.92-13.12l.81-10.78c-19.56-1.26-2.08,7.64-36.51-5.13-26.49-9.88-49.74-7.72-73.36,7.29-8.74,5.48-20.28,13.29-26.69,19.87-4.15,4.3-7.93,6.63-11.8,10.95-10.09,11.15-20.47,26.98-28.84,40.44-9.19,14.75-17.48,27.05-30.83,37.49-4.06,3.13-9.47,7.88-11.81,11.66" clip-rule="evenodd" fill="#0a4f9a" fill-rule="evenodd"/><path d="M614.42,404.35l.28,10.25c8.57,5.68,19.11,2.88,21.72,13.31c3.15,12.48-7.3,14.28-17.22,16.52-.17,14.21-1.89,37.94,1.17,50.88c17.49,4.04,29.84,4.49,44.62,12.84c45.43,25.61,20.28,78.09-38.13,82.13-3.59.27-4.77,0-7.21,1.27-2.52,10.06-1.89,34.96.63,45.2c12.07,4.77,52.28,4.95,50.2,33.8-1.17,16.07-20.28,25.8-33.71,29.74-5.41,1.61-12.17,2.07-17.3,4.4-1.35,12.41-1.8,32.07.55,43.95c18.29,3.67,41.18,7.46,41,27.77-.19,18.06-26.59,21.57-44.62,24.09l-.62,11.5c23.69-1.44,51.91-9.16,56.05-29.39c5.41-25.89-19.11-40.53-41.28-43.59l.18-24.99c22.9-7.01,50.75-16.26,51.2-43.4.44-32.26-25.23-35.41-51.11-43.59l-.44-25.78c32.9-3.43,69.31-25.44,69.49-58.16.1-19.12-12.71-33.15-22.52-40.33-5.78-4.22-13.17-8.01-20.74-10.97-6.67-2.7-21.27-4.96-25.51-7.01l-.37-31.02c12.72-4.48,11.64-11.77,22.36.99c5.67,6.65,9.91,15.74,15.41,22.2c24.51,29.04,55.25,48.89,95.36,52.85c23.43,2.33,48.48,3.4,70.57-1.45-1.62-6.83-6.59-7.81-11.36-11.86-4.33-3.59-7.93-6.83-11.63-11.14-17.66-20.49-25.24-40.54-48.22-66.59-15.68-17.71-43.08-40.17-71.56-44.22-15.14-2.15-26.23.09-39.21,5.04-5.13,1.97-10.91,5.11-16.13,6.63-7.12,2.1-14.59-1.15-21.9-1.87" clip-rule="evenodd" fill="#0a4f9a" fill-rule="evenodd"/><path d="M597.48,318.53c-46.06,9.35-33.62,79.72,15.06,69.93c43.79-8.73,32.71-79.62-15.06-69.93" clip-rule="evenodd" fill="#0a4f9a" fill-rule="evenodd"/><path d="M597.84,567.65c3.33-1.98.45-.17,3.33-3.23c12.53-.36,25.59.63,37.32-2.79c9.01-2.69,22.18-9.72,22.88-17.71c1.54-15.63-38.85-22.45-46.5-22.28-3.07.09-4.96,1.08-8.74,1.26-12.43.35-58.32.72-62.19,18.6-1.98,9.35,12.35,17.06,20.19,19.77c11,3.85,23.89,2.52,33.71,6.38" clip-rule="evenodd" fill="#adb3b8" fill-rule="evenodd"/><path d="M601.72,832.13c-32.09,7.91-20.91,51.67,8.65,47.36c32.26-4.76,22.89-55.1-8.65-47.36" clip-rule="evenodd" fill="#0a4f9a" fill-rule="evenodd"/><path d="M563.14,670.99c4.59,1.53,36.32,12.24,38.49,11.88c4.14-.63,12.17-4.6,19.65-6.03c9.1-1.71,13.06-4.39,19.91-6.73-3.42-3.23-12.07-3.6-18.66-5.03-17.11-3.87-3.42-1.52-18.47-.81-8.19.36-29.11,1.08-36.95,4.03l-3.97,2.69Z" clip-rule="evenodd" fill="#adb3b8" fill-rule="evenodd"/><path d="M601.99,567.65c32.53,0,58.94-10.7,58.94-23.91c0-13.11-26.41-23.91-58.94-23.91-32.44,0-58.86,10.8-58.86,23.91c0,13.21,26.42,23.91,58.86,23.91" clip-rule="evenodd" fill="#adb3b9" fill-rule="evenodd"/><path d="M600.19,687.89c23.16,0,42.09-7.65,42.09-17.07c0-9.35-18.94-17.07-42.09-17.07-23.26,0-42.18,7.72-42.18,17.07c0,9.42,18.92,17.07,42.18,17.07" clip-rule="evenodd" fill="#adb3b9" fill-rule="evenodd"/></g></svg>